<svg width="126" height="41" viewBox="0 0 126 41" fill="none" xmlns="http://www.w3.org/2000/svg">
<circle cx="19.5459" cy="20.5" r="19.5459" fill="url(#paint0_linear_294_240)"/>
<path d="M53.7623 11.5455L57.981 24.8068H58.1429L62.3702 11.5455H66.4611L60.4441 29H55.6884L49.6628 11.5455H53.7623ZM70.7736 29.2472C69.9384 29.2472 69.1941 29.1023 68.5407 28.8125C67.8873 28.517 67.3702 28.0824 66.9895 27.5085C66.6145 26.929 66.427 26.2074 66.427 25.3438C66.427 24.6165 66.5605 24.0057 66.8276 23.5114C67.0946 23.017 67.4583 22.6193 67.9185 22.3182C68.3787 22.017 68.9015 21.7898 69.4867 21.6364C70.0776 21.483 70.6969 21.375 71.3446 21.3125C72.106 21.233 72.7196 21.1591 73.1855 21.0909C73.6515 21.017 73.9895 20.9091 74.1998 20.767C74.41 20.625 74.5151 20.4148 74.5151 20.1364V20.0852C74.5151 19.5455 74.3446 19.1278 74.0037 18.8324C73.6685 18.5369 73.1912 18.3892 72.5719 18.3892C71.9185 18.3892 71.3986 18.5341 71.0123 18.8239C70.6259 19.108 70.3702 19.4659 70.2452 19.8977L66.8873 19.625C67.0577 18.8295 67.3929 18.142 67.8929 17.5625C68.3929 16.9773 69.0378 16.5284 69.8276 16.2159C70.623 15.8977 71.5435 15.7386 72.589 15.7386C73.3162 15.7386 74.0123 15.8239 74.677 15.9943C75.3475 16.1648 75.9412 16.429 76.4583 16.7869C76.981 17.1449 77.3929 17.6051 77.6941 18.1676C77.9952 18.7244 78.1458 19.392 78.1458 20.1705V29H74.7026V27.1847H74.6003C74.3901 27.5938 74.1088 27.9545 73.7566 28.267C73.4043 28.5739 72.981 28.8153 72.4867 28.9915C71.9924 29.1619 71.4213 29.2472 70.7736 29.2472ZM71.8134 26.7415C72.3475 26.7415 72.8191 26.6364 73.2282 26.4261C73.6373 26.2102 73.9583 25.9205 74.1912 25.5568C74.4242 25.1932 74.5407 24.7812 74.5407 24.321V22.9318C74.427 23.0057 74.2708 23.0739 74.0719 23.1364C73.8787 23.1932 73.66 23.2472 73.4157 23.2983C73.1713 23.3437 72.927 23.3864 72.6827 23.4261C72.4384 23.4602 72.2168 23.4915 72.0179 23.5199C71.5918 23.5824 71.2196 23.6818 70.9015 23.8182C70.5833 23.9545 70.3361 24.1392 70.16 24.3722C69.9838 24.5994 69.8958 24.8835 69.8958 25.2244C69.8958 25.7188 70.0748 26.0966 70.4327 26.358C70.7963 26.6136 71.2566 26.7415 71.8134 26.7415ZM89.3574 23.4261V15.9091H92.9881V29H89.5023V26.6222H89.3659C89.0705 27.3892 88.579 28.0057 87.8915 28.4716C87.2097 28.9375 86.3773 29.1705 85.3944 29.1705C84.5194 29.1705 83.7495 28.9716 83.0847 28.5739C82.4199 28.1761 81.9 27.6108 81.525 26.8778C81.1557 26.1449 80.9682 25.267 80.9625 24.2443V15.9091H84.5932V23.5966C84.5989 24.3693 84.8063 24.9801 85.2154 25.429C85.6245 25.8778 86.1728 26.1023 86.8603 26.1023C87.2978 26.1023 87.7069 26.0028 88.0875 25.804C88.4682 25.5994 88.775 25.2983 89.008 24.9006C89.2466 24.5028 89.3631 24.0114 89.3574 23.4261ZM99.5229 11.5455V29H95.8922V11.5455H99.5229ZM109.394 15.9091V18.6364H101.511V15.9091H109.394ZM103.301 12.7727H106.931V24.9773C106.931 25.3125 106.982 25.5739 107.085 25.7614C107.187 25.9432 107.329 26.071 107.511 26.1449C107.698 26.2187 107.914 26.2557 108.159 26.2557C108.329 26.2557 108.499 26.2415 108.67 26.2131C108.84 26.179 108.971 26.1534 109.062 26.1364L109.633 28.8381C109.451 28.8949 109.195 28.9602 108.866 29.0341C108.536 29.1136 108.136 29.1619 107.664 29.179C106.789 29.2131 106.022 29.0966 105.363 28.8295C104.71 28.5625 104.201 28.1477 103.838 27.5852C103.474 27.0227 103.295 26.3125 103.301 25.4545V12.7727ZM117.534 29.2557C116.21 29.2557 115.065 28.9744 114.099 28.4119C113.139 27.8437 112.397 27.054 111.874 26.0426C111.352 25.0256 111.09 23.8466 111.09 22.5057C111.09 21.1534 111.352 19.9716 111.874 18.9602C112.397 17.9432 113.139 17.1534 114.099 16.5909C115.065 16.0227 116.21 15.7386 117.534 15.7386C118.857 15.7386 119.999 16.0227 120.96 16.5909C121.926 17.1534 122.67 17.9432 123.193 18.9602C123.715 19.9716 123.977 21.1534 123.977 22.5057C123.977 23.8466 123.715 25.0256 123.193 26.0426C122.67 27.054 121.926 27.8437 120.96 28.4119C119.999 28.9744 118.857 29.2557 117.534 29.2557ZM117.551 26.4432C118.153 26.4432 118.656 26.2727 119.059 25.9318C119.463 25.5852 119.767 25.1136 119.971 24.517C120.181 23.9205 120.286 23.2415 120.286 22.4801C120.286 21.7188 120.181 21.0398 119.971 20.4432C119.767 19.8466 119.463 19.375 119.059 19.0284C118.656 18.6818 118.153 18.5085 117.551 18.5085C116.943 18.5085 116.431 18.6818 116.017 19.0284C115.607 19.375 115.298 19.8466 115.088 20.4432C114.883 21.0398 114.781 21.7188 114.781 22.4801C114.781 23.2415 114.883 23.9205 115.088 24.517C115.298 25.1136 115.607 25.5852 116.017 25.9318C116.431 26.2727 116.943 26.4432 117.551 26.4432Z" fill="#231D17"/>
<defs>
<linearGradient id="paint0_linear_294_240" x1="0" y1="20.5" x2="39.0918" y2="20.5" gradientUnits="userSpaceOnUse">
<stop stop-color="#FFCF9D"/>
<stop offset="1" stop-color="#FFA97F"/>
</linearGradient>
</defs>
</svg>
