<svg width="1358" height="327" viewBox="0 0 1358 327" fill="none" xmlns="http://www.w3.org/2000/svg">
<rect y="46.5" width="234" height="234" rx="117" fill="url(#paint0_linear_294_355)"/>
<path d="M317.446 65.6364L361.359 209.457H362.989L406.903 65.6364H460.021L393.767 262H330.582L264.328 65.6364H317.446ZM494.37 262H443.361L509.615 65.6364H572.8L639.054 262H588.045L541.927 115.111H540.393L494.37 262ZM487.562 184.72H594.182V220.771H487.562V184.72ZM778.992 65.6364H826.357V192.295C826.357 206.933 822.873 219.685 815.906 230.551C808.938 241.354 799.222 249.727 786.758 255.672C774.294 261.553 759.816 264.493 743.324 264.493C726.641 264.493 712.067 261.553 699.602 255.672C687.138 249.727 677.454 241.354 670.551 230.551C663.647 219.685 660.195 206.933 660.195 192.295V65.6364H707.656V188.172C707.656 194.947 709.127 200.988 712.067 206.293C715.071 211.599 719.258 215.754 724.627 218.758C729.997 221.762 736.229 223.264 743.324 223.264C750.419 223.264 756.619 221.762 761.925 218.758C767.294 215.754 771.481 211.599 774.485 206.293C777.49 200.988 778.992 194.947 778.992 188.172V65.6364ZM856.104 262V65.6364H903.565V223.456H985.255V262H856.104ZM979.406 104.18V65.6364H1145.38V104.18H1085.83V262H1039.04V104.18H979.406ZM1344.93 163.818C1344.93 185.423 1340.77 203.737 1332.46 218.758C1324.15 233.779 1312.9 245.189 1298.71 252.987C1284.59 260.786 1268.73 264.685 1251.16 264.685C1233.51 264.685 1217.63 260.754 1203.5 252.891C1189.38 245.029 1178.16 233.619 1169.85 218.662C1161.6 203.641 1157.48 185.359 1157.48 163.818C1157.48 142.213 1161.6 123.9 1169.85 108.879C1178.16 93.8572 1189.38 82.4474 1203.5 74.6491C1217.63 66.8508 1233.51 62.9517 1251.16 62.9517C1268.73 62.9517 1284.59 66.8508 1298.71 74.6491C1312.9 82.4474 1324.15 93.8572 1332.46 108.879C1340.77 123.9 1344.93 142.213 1344.93 163.818ZM1296.41 163.818C1296.41 151.034 1294.59 140.232 1290.95 131.411C1287.37 122.589 1282.19 115.91 1275.41 111.371C1268.7 106.833 1260.62 104.564 1251.16 104.564C1241.76 104.564 1233.67 106.833 1226.9 111.371C1220.12 115.91 1214.91 122.589 1211.27 131.411C1207.69 140.232 1205.9 151.034 1205.9 163.818C1205.9 176.602 1207.69 187.405 1211.27 196.226C1214.91 205.047 1220.12 211.727 1226.9 216.265C1233.67 220.803 1241.76 223.072 1251.16 223.072C1260.62 223.072 1268.7 220.803 1275.41 216.265C1282.19 211.727 1287.37 205.047 1290.95 196.226C1294.59 187.405 1296.41 176.602 1296.41 163.818Z" fill="#FFFEFD"/>
<defs>
<linearGradient id="paint0_linear_294_355" x1="0" y1="163.5" x2="234" y2="163.5" gradientUnits="userSpaceOnUse">
<stop stop-color="#FFCF9D"/>
<stop offset="1" stop-color="#FFA97F"/>
</linearGradient>
</defs>
</svg>
